<?xml version="1.0" encoding="UTF-8"?>
<svg id="Capa_2" data-name="Capa 2" xmlns="http://www.w3.org/2000/svg" viewBox="0 0 49.46 57.7">
  <defs>
    <style>
      .cls-1 {
        fill: #fff;
      }

      .cls-2 {
        fill: #4e4e4e;
      }

      .cls-3 {
        fill: #f9ca48;
      }
    </style>
  </defs>
  <g id="Object">
    <g>
      <g>
        <g>
          <path class="cls-3" d="M19.59,47.4c-1.01-.56,.66-5.28-.37-5.9-1.45-.87-9.02-6.4-8.21-14.98s6.08-14.61,14.77-14.39c8.7,.22,14.64,5.64,14.76,14.73,.12,8.97-7.03,13.86-7.21,15.34-.18,1.48,.64,4.88,.12,5.29-1.19,.93-12.1,.88-13.86-.09Z"/>
          <path class="cls-2" d="M29.34,52.96c-2.15-.05-5.28-.19-9.85-.43-.95-.05-1.67-.86-1.62-1.81,.05-.95,.86-1.68,1.81-1.62,5.93,.36,12.92,.74,13.25,.42,.65-.21,1.39,0,1.85,.55,.6,.74,.49,1.82-.25,2.42-.42,.34-.72,.58-5.18,.47Z"/>
          <path class="cls-2" d="M28.41,57.68c-1.55-.04-3.79-.15-7.07-.36-.68-.04-1.2-.85-1.15-1.79,.04-.95,.63-1.68,1.31-1.64,4.07,.26,8.66,.45,9.51,.33,.47-.21,1-.02,1.32,.54,.42,.73,.34,1.81-.19,2.42-.31,.35-.52,.59-3.72,.51Z"/>
        </g>
        <path class="cls-1" d="M32.99,28.5c-.82-.55-1.83-.05-2.39,.61-.67,.79-1.17,1.77-1.6,2.71-.1,.22-.2,.45-.3,.68-.51,0-1.01-.13-1.48-.41-.13-.08-.26-.17-.38-.27,.94-.9,1.64-2.1,1.65-3.35,0-.79-.34-1.53-1.11-1.82-.95-.36-1.91,.45-2.32,1.23-.65,1.25-.35,2.76,.44,3.88-.66,.46-1.44,.76-2.23,.82-.17-.77-.37-1.52-.61-2.26-.29-.88-.7-1.74-1.38-2.38-.69-.65-1.78-1.02-2.32,0-.86,1.63,.15,3.6,1.45,4.64,.68,.54,1.47,.82,2.28,.87,.1,.5,.19,1.01,.27,1.51,.49,3.09,.39,6.18,.02,9.27-.03,.28,.43,.35,.49,.08,.49-2.33,.59-4.75,.44-7.13-.08-1.25-.22-2.5-.45-3.75,.73-.07,1.46-.3,2.11-.67,.18-.1,.36-.21,.54-.34,.64,.6,1.43,.91,2.24,.99-.54,1.49-.9,3.04-1.15,4.6-.33,2.08-.46,4.18-.52,6.28-.02,.66,1,.68,1.02,.03,.09-3.67,.39-7.47,1.71-10.93,.56-.08,1.11-.26,1.62-.52,1.2-.62,3.8-3.15,1.96-4.39Zm-11.22,3.88c-.82-.3-1.49-.97-1.91-1.73-.35-.65-.6-1.82-.08-2.46,.32-.4,1.17,.56,1.36,.79,.38,.47,.61,1.07,.81,1.64,.22,.63,.4,1.28,.55,1.94-.24-.03-.49-.09-.73-.18Zm4.32-4.37c.22-.31,.68-.64,1.07-.45,.29,.14,.39,.5,.41,.8,.06,.86-.4,1.64-.9,2.3-.13,.17-.28,.34-.43,.5-.64-.93-.81-2.19-.14-3.15Zm6.53,1.68c-.07,.46-.42,.93-.71,1.27-.53,.62-1.26,1.12-2.05,1.37,.1-.23,.21-.45,.33-.68,.24-.46,.5-.91,.77-1.35,.24-.38,.53-.86,.99-1.02,.3-.1,.74,0,.68,.4Z"/>
      </g>
      <path class="cls-3" d="M28.28,.99c-.04-1.03-1.69-1.44-1.9-.31-.24,1.3-.17,2.67-.21,3.99-.04,1.27-.3,2.75,.26,3.94,.13,.28,.52,.25,.67,.02,.67-1.02,.64-2.44,.77-3.63,.15-1.31,.46-2.7,.41-4.01Z"/>
      <path class="cls-3" d="M41.24,4.02c-.63,.37-1.08,1-1.57,1.53-.57,.61-1.14,1.22-1.71,1.83-1.04,1.14-2.09,2.29-2.98,3.55-.44,.63,.47,1.31,1.01,.82,1.09-1,2.1-2.09,3.16-3.12,.53-.52,1.07-1.02,1.62-1.53,.6-.55,1.35-1.02,1.8-1.7,.55-.83-.48-1.9-1.33-1.39Z"/>
      <path class="cls-3" d="M16.97,10.4c-1.83-2.03-3.78-4-5.71-5.94-.84-.84-2.2,.47-1.33,1.27,2.03,1.85,4.08,3.72,6.2,5.47,.56,.47,1.36-.23,.84-.8Z"/>
      <path class="cls-3" d="M7.94,17.69c-1.18-.14-2.34-.27-3.49-.59-.6-.16-1.18-.37-1.75-.6-.57-.23-1.09-.64-1.69-.77-.67-.14-1.41,.71-.77,1.25,.91,.78,2.43,1.02,3.57,1.31,1.61,.41,3.17,.63,4.1,.32,.56-.19,.62-.85,.02-.92Z"/>
      <path class="cls-3" d="M48.85,17.88c-.78-.34-1.91,.04-2.74,.14-1.04,.13-2.04,.26-3.04,.52-.6,.16-.45,.95,.11,1.03,.95,.13,1.87,.15,2.84,.15,.93,0,2.18,.25,3-.23,.71-.41,.51-1.32-.17-1.61Z"/>
    </g>
  </g>
</svg>